<svg width="34" height="28" viewBox="0 0 34 28" fill="none" xmlns="http://www.w3.org/2000/svg">
<path fill-rule="evenodd" clip-rule="evenodd" d="M4.2 1.5C2.71614 1.5 1.5 2.71614 1.5 4.2V23.4C1.5 24.8839 2.71614 26.1 4.2 26.1H29.8C31.2839 26.1 32.5 24.8839 32.5 23.4V4.2C32.5 2.71614 31.2839 1.5 29.8 1.5H4.2ZM0.5 4.2C0.5 2.16386 2.16386 0.5 4.2 0.5H29.8C31.8361 0.5 33.5 2.16386 33.5 4.2V23.4C33.5 25.4361 31.8361 27.1 29.8 27.1H4.2C2.16386 27.1 0.5 25.4361 0.5 23.4V4.2Z" fill="black"/>
<path fill-rule="evenodd" clip-rule="evenodd" d="M0.591037 3.91326C0.749395 3.68704 1.06116 3.63202 1.28738 3.79038L17.0007 14.7897L32.7139 3.79038C32.9401 3.63202 33.2519 3.68704 33.4103 3.91326C33.5686 4.13949 33.5136 4.45125 33.2874 4.60961L17.2874 15.8096C17.1152 15.9301 16.8861 15.9301 16.7139 15.8096L0.713922 4.60961C0.487697 4.45125 0.43268 4.13949 0.591037 3.91326Z" fill="black"/>
</svg>
