<svg width="158" height="158" viewBox="0 0 158 158" fill="none" xmlns="http://www.w3.org/2000/svg">
<g filter="url(#filter0_d_1_95)">
<path fill-rule="evenodd" clip-rule="evenodd" d="M79 146C118.212 146 150 114.212 150 75C150 35.7878 118.212 4 79 4C39.7878 4 8 35.7878 8 75C8 114.212 39.7878 146 79 146ZM79 150C120.421 150 154 116.421 154 75C154 33.5786 120.421 0 79 0C37.5786 0 4 33.5786 4 75C4 116.421 37.5786 150 79 150Z" fill="#0082F4"/>
<g clip-path="url(#clip0_1_95)">
<path d="M111.179 66.0628H77.4562V45.2586C77.4562 43.7325 76.2146 42.4908 74.6885 42.4908H65.8377C64.4935 41.2489 62.6984 40.4884 60.7282 40.4884C58.7579 40.4884 56.9629 41.2489 55.6186 42.4908H46.7678C45.2416 42.4908 44 43.7325 44 45.2586V83.2117C44 84.7378 45.2416 85.9795 46.7678 85.9795H63.937V106.691C63.937 108.246 65.2026 109.512 66.7582 109.512H111.179C112.735 109.512 114 108.246 114 106.691V68.8835C114 67.3281 112.735 66.0628 111.179 66.0628ZM82.8069 69.4307H95.1306V90.912L89.5509 88.8565C89.1753 88.7182 88.7623 88.7182 88.3867 88.8565L82.807 90.912V69.4307H82.8069ZM60.7282 43.8562C62.9507 43.8562 64.7723 45.6043 64.8913 47.7977H56.565C56.6839 45.6042 58.5056 43.8562 60.7282 43.8562ZM47.3679 45.8587H53.5096C53.3239 46.4756 53.2166 47.1257 53.1964 47.7976H49.9175C48.9876 47.7976 48.2336 48.5515 48.2336 49.4815C48.2336 50.4115 48.9876 51.1654 49.9175 51.1654H71.5388C72.4688 51.1654 73.2227 50.4115 73.2227 49.4815C73.2227 48.5515 72.4688 47.7976 71.5388 47.7976H68.2598C68.2396 47.1257 68.1321 46.4756 67.9466 45.8587H74.0883V82.6116H47.3679V45.8587ZM110.632 106.144H67.3049V85.9795H74.6884C76.2145 85.9795 77.456 84.7379 77.456 83.2117V69.4305H79.4388V93.3269C79.4388 93.8775 79.708 94.3932 80.1596 94.7082C80.446 94.9079 80.7829 95.0108 81.1229 95.0108C81.3189 95.0108 81.5159 94.9767 81.7048 94.907L88.9685 92.2313L96.2322 94.907C96.7488 95.0974 97.3259 95.0231 97.7774 94.7082C98.229 94.3932 98.4982 93.8775 98.4982 93.3269V69.4307H110.632V106.144H110.632Z" fill="#0082F4"/>
<path d="M66.3615 62.1051L58.1579 70.3086L55.0946 67.2453C54.437 66.5877 53.3708 66.5877 52.713 67.2453C52.0554 67.9029 52.0554 68.9692 52.713 69.6269L56.9671 73.8809C57.283 74.1968 57.7113 74.3741 58.1579 74.3741C58.6045 74.3741 59.0328 74.1968 59.3487 73.8809L68.743 64.4866C69.4006 63.829 69.4006 62.7627 68.743 62.1051C68.0854 61.4474 67.0192 61.4474 66.3615 62.1051Z" fill="#0082F4"/>
</g>
</g>
<defs>
<filter id="filter0_d_1_95" x="0" y="0" width="158" height="158" filterUnits="userSpaceOnUse" color-interpolation-filters="sRGB">
<feFlood flood-opacity="0" result="BackgroundImageFix"/>
<feColorMatrix in="SourceAlpha" type="matrix" values="0 0 0 0 0 0 0 0 0 0 0 0 0 0 0 0 0 0 127 0" result="hardAlpha"/>
<feOffset dy="4"/>
<feGaussianBlur stdDeviation="2"/>
<feComposite in2="hardAlpha" operator="out"/>
<feColorMatrix type="matrix" values="0 0 0 0 0 0 0 0 0 0 0 0 0 0 0 0 0 0 0.25 0"/>
<feBlend mode="normal" in2="BackgroundImageFix" result="effect1_dropShadow_1_95"/>
<feBlend mode="normal" in="SourceGraphic" in2="effect1_dropShadow_1_95" result="shape"/>
</filter>
<clipPath id="clip0_1_95">
<rect width="70" height="70" fill="white" transform="translate(44 40)"/>
</clipPath>
</defs>
</svg>
