<svg width="40" height="29" viewBox="0 0 40 29" fill="none" xmlns="http://www.w3.org/2000/svg">
<path d="M38.2045 5.22639C37.9993 4.39755 37.5815 3.63813 36.9932 3.02484C36.4048 2.41155 35.6669 1.96611 34.8538 1.73351C31.883 1 20 1 20 1C20 1 8.11698 1 5.14623 1.80336C4.33315 2.03596 3.59518 2.4814 3.00685 3.09469C2.41851 3.70798 2.00066 4.4674 1.79549 5.29625C1.2518 8.34476 0.98585 11.4373 1.00099 14.5349C0.981607 17.6559 1.24757 20.772 1.79549 23.8435C2.02168 24.6466 2.4489 25.3771 3.03586 25.9645C3.62282 26.5519 4.34969 26.9763 5.14623 27.1966C8.11698 28 20 28 20 28C20 28 31.883 28 34.8538 27.1966C35.6669 26.964 36.4048 26.5186 36.9932 25.9053C37.5815 25.292 37.9993 24.5326 38.2045 23.7038C38.744 20.6782 39.0099 17.6093 38.999 14.5349C39.0184 11.414 38.7524 8.29786 38.2045 5.22639Z" fill="white"/>
<path fill-rule="evenodd" clip-rule="evenodd" d="M19.9998 0.5C19.9999 0.5 20 0.5 20 1C20 1.5 20 1.5 19.9999 1.5L19.8669 1.50019C19.7796 1.50039 19.6509 1.50078 19.486 1.50156C19.1561 1.50313 18.6814 1.50626 18.1023 1.51252C16.9439 1.52505 15.3691 1.55011 13.7022 1.60019C12.0345 1.6503 10.2787 1.72535 8.75719 1.83756C7.22419 1.95063 5.97136 2.09883 5.28025 2.28508C4.55402 2.49351 3.89425 2.89191 3.36766 3.44083C2.8439 3.98681 2.47037 4.6625 2.28475 5.40073C1.74838 8.41404 1.48602 11.4707 1.50098 14.5325L1.50101 14.538C1.48187 17.6202 1.74373 20.6975 2.28332 23.7309C2.48806 24.443 2.86895 25.0901 3.38954 25.6111C3.91534 26.1372 4.56587 26.517 5.27811 26.7143C5.96876 26.9009 7.2226 27.0493 8.75719 27.1624C10.2787 27.2746 12.0345 27.3497 13.7022 27.3998C15.3691 27.4499 16.9439 27.4749 18.1023 27.4875C18.6814 27.4937 19.1561 27.4969 19.486 27.4984C19.6509 27.4992 19.7796 27.4996 19.8669 27.4998L19.9995 27.5C19.9996 27.5 20 27.5 20 28C20 28.5 19.9999 28.5 19.9998 28.5L19.8647 28.4998C19.7766 28.4996 19.647 28.4992 19.4812 28.4984C19.1496 28.4969 18.6728 28.4937 18.0915 28.4874C16.9289 28.4748 15.3473 28.4497 13.6721 28.3994C11.9977 28.349 10.2257 28.2735 8.68364 28.1597C7.15565 28.047 5.81071 27.8943 5.0157 27.6793L5.0129 27.6785C4.13262 27.435 3.32994 26.9661 2.68218 26.3179C2.03444 25.6697 1.56348 24.864 1.31422 23.979C1.30979 23.9633 1.30613 23.9474 1.30326 23.9313C0.750152 20.8307 0.481585 17.6851 0.50098 14.5346C0.485867 11.4076 0.754416 8.28585 1.30326 5.20846C1.3052 5.1976 1.30749 5.18681 1.31014 5.17611C1.53623 4.26275 1.99683 3.4253 2.64603 2.74856C3.29526 2.07178 4.11017 1.5797 5.00871 1.32265L5.01569 1.32065C5.8107 1.10566 7.15565 0.952966 8.68364 0.840273C10.2257 0.72654 11.9977 0.650957 13.6721 0.600646C15.3473 0.550311 16.9289 0.525157 18.0915 0.512582C18.6728 0.506293 19.1496 0.503148 19.4812 0.501575C19.647 0.500788 19.7766 0.500394 19.8647 0.500197L19.9998 0.5ZM34.7197 26.7149C34.0286 26.9012 32.7758 27.0494 31.2428 27.1624C29.7213 27.2746 27.9655 27.3497 26.2978 27.3998C24.6309 27.4499 23.0561 27.4749 21.8977 27.4875C21.3186 27.4937 20.8439 27.4969 20.514 27.4984C20.3491 27.4992 20.2204 27.4996 20.1331 27.4998L19.9995 27.5C19.9996 27.5 20 27.5 20 28C20 28.5 19.9999 28.5 19.9998 28.5L20.1353 28.4998C20.2234 28.4996 20.353 28.4992 20.5188 28.4984C20.8504 28.4969 21.3272 28.4937 21.9085 28.4874C23.0711 28.4748 24.6527 28.4497 26.3279 28.3994C28.0023 28.349 29.7743 28.2735 31.3164 28.1597C32.8444 28.047 34.1893 27.8943 34.9843 27.6793L34.9913 27.6774C35.8898 27.4203 36.7047 26.9282 37.354 26.2514C38.0032 25.5747 38.4638 24.7372 38.6899 23.8239C38.6925 23.8132 38.6948 23.8024 38.6967 23.7915C39.2414 20.7372 39.5099 17.639 39.499 14.5355C39.5184 11.3849 39.2499 8.23922 38.6967 5.13858L38.2045 5.22639L38.6899 5.10625C38.4638 4.1929 38.0032 3.35544 37.354 2.6787C36.7047 2.00192 35.8898 1.50984 34.9913 1.25279C34.9854 1.25111 34.9795 1.24954 34.9736 1.24808C34.1826 1.05277 32.8413 0.913482 31.3132 0.810578C29.772 0.706794 28.0007 0.637804 26.3266 0.591876C24.6517 0.545928 23.0704 0.522965 21.9081 0.511485C21.3268 0.505745 20.8501 0.502873 20.5186 0.501437C20.3528 0.500719 20.2233 0.50036 20.1352 0.50018L19.9998 0.5C19.9999 0.5 20 0.5 20 1C20 1.5 20 1.5 19.9999 1.5L20.1332 1.50018C20.2206 1.50036 20.3493 1.50071 20.5142 1.50143C20.8442 1.50286 21.319 1.50572 21.8982 1.51144C23.0568 1.52288 24.6319 1.54576 26.2991 1.5915C27.9671 1.63726 29.7236 1.7058 31.246 1.80832C32.7749 1.91127 34.0288 2.04633 34.725 2.21674C35.4492 2.42558 36.107 2.82338 36.6323 3.37097C37.1561 3.91694 37.5296 4.59261 37.7152 5.33083C38.2558 8.36689 38.5182 11.447 38.499 14.5318L38.499 14.5367C38.5098 17.5754 38.2475 20.6087 37.7153 23.5993C37.5296 24.3375 37.1561 25.0132 36.6323 25.5592C36.1057 26.1081 35.4459 26.5065 34.7197 26.7149Z" fill="white"/>
<path d="M15 19.5701C15 19.5778 15.0083 19.5826 15.0149 19.5788L24.2932 14.3023C24.3 14.2985 24.3 14.2887 24.2932 14.2849L15.0149 9.0084C15.0083 9.00461 15 9.00943 15 9.01709V19.5701Z" fill="#C3C3C3"/>
</svg>
